<svg xmlns="http://www.w3.org/2000/svg" xmlns:xlink="http://www.w3.org/1999/xlink" version="1.1" x="0px" y="0px" viewBox="17 176.375 48 60" enable-background="new 17 176.375 48 48" xml:space="preserve"><path  fill="#8c0a0a"  d="M41,190.389c-2.118,0-3.834,1.717-3.834,3.834c0,2.117,1.716,3.834,3.834,3.834  c2.117,0,3.834-1.717,3.834-3.834C44.834,192.106,43.117,190.389,41,190.389z M41,176.375c-13.255,0-24,10.745-24,24  s10.745,24,24,24c13.254,0,24-10.745,24-24S54.254,176.375,41,176.375z M50.908,196.611c0,0-0.012,0.035-0.021,0.066  c-0.152,0.613-0.367,1.197-0.625,1.762c-0.141,0.371-0.295,0.762-0.453,1.142c-0.045,0.142-0.102,0.285-0.172,0.433l-0.152,0.305  l-0.002,0.004c-1.102,2.353-5.791,11.707-5.791,11.707l-1.7,3.438c-0.858,1.733-2.2,1.705-2.982-0.062l-1.302-2.943  c-0.099-0.221-4.146-9.236-5.416-12.243l-0.062-0.14c-0.005-0.012-0.006-0.023-0.012-0.035c-0.008-0.021-0.019-0.044-0.027-0.064  c-0.414-0.99-0.891-2.633-1.044-3.172c-0.014-0.054-0.031-0.104-0.044-0.156c-0.003-0.01-0.01-0.037-0.01-0.037h0.003  c-0.186-0.766-0.289-1.564-0.289-2.389c0-5.631,4.564-10.195,10.195-10.195s10.194,4.564,10.194,10.195  c0,0.825-0.108,1.623-0.297,2.391L50.908,196.611z"/></svg>