<svg xmlns="http://www.w3.org/2000/svg" xmlns:xlink="http://www.w3.org/1999/xlink" version="1.1" x="0px" y="0px" viewBox="0 0 48 60" enable-background="new 0 0 48 48" xml:space="preserve"><g><path fill="black" d="M24,0C15.788,0,9.106,6.681,9.106,14.893c0,7.848,13.451,31.595,14.024,32.602C23.309,47.807,23.641,48,24,48   s0.691-0.193,0.869-0.506c0.573-1.007,14.024-24.754,14.024-32.602C38.894,6.681,32.212,0,24,0z M24,24.547   c-5.323,0-9.654-4.331-9.654-9.654S18.677,5.238,24,5.238s9.654,4.331,9.654,9.654S29.323,24.547,24,24.547z"/> <path fill="red" fill-opacity=".7" d="M24,24.547C18.677,24.547,14.346,20.216,14.346,14.893S18.677,5.238,24,5.238S33.653999999999996,9.569,33.653999999999996,14.892S29.323,24.547,24,24.547Z"/></g></svg>