<svg xmlns="http://www.w3.org/2000/svg" xmlns:xlink="http://www.w3.org/1999/xlink" version="1.1" x="0px" y="0px" viewBox="0 0 100 125" style="enable-background:new 0 0 100 100;" xml:space="preserve"><path fill="#8c0a0a" d="M50.9-121.2l11.8,28.1c0.1,0.4,0.5,0.6,0.9,0.6L94-90c0.9,0.1,1.3,1.2,0.6,1.8L71.5-68.3c-0.3,0.2-0.4,0.6-0.3,1l7,29.7  c0.2,0.9-0.8,1.6-1.5,1.1L50.5-52.3c-0.3-0.2-0.7-0.2-1.1,0L23.4-36.5c-0.8,0.5-1.7-0.2-1.5-1.1l7-29.7c0.1-0.4,0-0.8-0.3-1  L5.4-88.2C4.8-88.8,5.1-89.9,6-90l30.4-2.5c0.4,0,0.7-0.3,0.9-0.6l11.8-28.1C49.4-122.1,50.6-122.1,50.9-121.2z"/><path fill="#8c0a0a" d="M80.7,35.4C80.7,17.9,65.8,3.7,48,5.1C34.6,6.2,23.4,16.3,20.9,29.5c-1.5,7.7,0,14.5,3.6,21.5h0l24.9,43.3  c0.5,0.9,1.7,0.9,2.2,0L76.5,51h0C79.2,47,80.7,41,80.7,35.4z M50.5,48.6c-7.4,0-13.4-6-13.4-13.4c0-7.4,6-13.4,13.4-13.4  s13.4,6,13.4,13.4C63.9,42.6,57.9,48.6,50.5,48.6z"/><path d="M224.3,55.5l-7.9-2.6c-0.7-0.2-1.2-0.9-1.2-1.6c0-0.1,0-4.3,0-4.3c0-0.7,0.4-1.4,1.1-1.7l7.8-3.1c0.4-0.2,0.8-0.7,0.7-1.1  l-2.3-7.8c-0.1-0.4-0.7-0.7-1.2-0.6l-8.2,1.7c-0.7,0.1-1.5-0.2-1.9-0.8c0-0.1-0.1-0.1-0.1-0.2c-0.1-0.1-0.2-0.3-0.2-0.4  c-0.1-0.1-0.1-0.2-0.2-0.3c-0.1-0.1-0.1-0.2-0.2-0.3c0,0,0,0,0-0.1c0,0,0,0,0-0.1c-0.1-0.1-0.1-0.2-0.2-0.3c0-0.1-0.1-0.2-0.1-0.2  c0,0,0-0.1-0.1-0.1c0-0.1-0.1-0.1-0.1-0.2c0-0.1-0.1-0.1-0.1-0.2c0,0-0.1-0.1-0.1-0.1c0-0.1-0.1-0.1-0.1-0.2  c-0.1-0.1-0.1-0.2-0.2-0.3c0,0,0,0,0-0.1c0,0,0,0,0,0c0,0,0,0,0,0c-0.1-0.1-0.1-0.2-0.2-0.3c-0.1-0.1-0.1-0.2-0.2-0.3c0,0,0,0,0,0  c-0.4-0.6-0.3-1.4,0.1-2l5.2-6.5c0.3-0.4,0.2-0.9-0.1-1.2l-5.9-5.6c-0.3-0.3-0.8-0.3-1.2,0l-6.2,5.5c-0.6,0.5-1.4,0.6-2,0.2  c-0.1,0-0.1-0.1-0.2-0.1c-0.1-0.1-0.3-0.2-0.4-0.2c-0.1-0.1-0.2-0.1-0.3-0.2c-0.1-0.1-0.2-0.1-0.3-0.2c0,0,0,0-0.1,0  c0,0-0.1,0-0.1,0c-0.1,0-0.2-0.1-0.3-0.1c-0.1,0-0.2-0.1-0.2-0.1c0,0-0.1,0-0.1-0.1c-0.1,0-0.1-0.1-0.2-0.1c-0.1,0-0.1-0.1-0.2-0.1  c-0.1,0-0.1-0.1-0.2-0.1c-0.1,0-0.1-0.1-0.2-0.1c-0.1,0-0.2-0.1-0.3-0.1c0,0-0.1,0-0.1,0c0,0,0,0-0.1,0c0,0,0,0,0,0  c-0.1,0-0.2-0.1-0.3-0.1c-0.1-0.1-0.2-0.1-0.3-0.2c0,0,0,0,0,0c-0.7-0.3-1-1.1-0.9-1.8l1.2-8.2c0.1-0.5-0.2-0.9-0.7-1l-7.9-1.9  c-0.4-0.1-0.9,0.1-1,0.6l-2.6,7.9c-0.2,0.7-0.9,1.2-1.6,1.2c-0.1,0-4.1,0-4.1,0c-0.7,0-1.4-0.2-1.7-0.9l-3.2-7.9  c-0.2-0.4-0.6-0.6-1.1-0.5l-7.8,2.3c-0.4,0.1-0.7,0.6-0.6,1l1.7,8.2c0.1,0.7-0.2,1.5-0.8,1.9c-0.1,0-0.1,0.1-0.2,0.1  c-0.1,0.1-0.3,0.1-0.4,0.2c-0.1,0.1-0.2,0.1-0.3,0.2c-0.1,0.1-0.2,0.1-0.3,0.2c0,0,0,0-0.1,0c0,0,0,0-0.1,0  c-0.1,0.1-0.2,0.1-0.3,0.2c-0.1,0-0.2,0.1-0.2,0.1c0,0-0.1,0-0.1,0.1c-0.1,0-0.1,0.1-0.2,0.1c-0.1,0-0.1,0.1-0.2,0.1  c0,0-0.1,0.1-0.1,0.1c-0.1,0-0.1,0.1-0.2,0.1c-0.1,0.1-0.2,0.1-0.3,0.2c0,0,0,0-0.1,0c0,0,0,0,0,0c0,0,0,0,0,0  c-0.1,0.1-0.2,0.1-0.3,0.2c-0.1,0.1-0.2,0.1-0.3,0.2c0,0,0,0,0,0c-0.6,0.4-1.4,0.3-2-0.1l-6.5-5.2c-0.4-0.3-0.9-0.2-1.2,0.1  l-5.6,5.9c-0.3,0.3-0.3,0.8,0,1.2l5.5,6.2c0.5,0.6,0.6,1.4,0.2,2c0,0.1-0.1,0.1-0.1,0.2c-0.1,0.1-0.2,0.3-0.2,0.4  c-0.1,0.1-0.1,0.2-0.2,0.3c-0.1,0.1-0.1,0.2-0.2,0.3c0,0,0,0,0,0.1c0,0,0,0.1,0,0.1c0,0.1-0.1,0.2-0.1,0.3c0,0.1-0.1,0.2-0.1,0.2  c0,0,0,0.1-0.1,0.1c0,0.1-0.1,0.1-0.1,0.2c0,0.1-0.1,0.1-0.1,0.2c0,0.1-0.1,0.1-0.1,0.2c0,0.1-0.1,0.1-0.1,0.2  c0,0.1-0.1,0.2-0.1,0.3c0,0,0,0.1,0,0.1c0,0,0,0,0,0.1c0,0,0,0,0,0c0,0.1-0.1,0.2-0.1,0.3c-0.1,0.1-0.1,0.2-0.2,0.3c0,0,0,0,0,0  c-0.3,0.7-1.1,1-1.8,0.9l-8.2-1.2c-0.5-0.1-0.9,0.2-1,0.7l-1.9,7.9c-0.1,0.4,0.1,0.9,0.6,1l7.9,2.6c0.7,0.2,1.2,0.9,1.2,1.6  c0,0.1,0,4.4,0,4.4c0,0.7-0.6,1.4-1.3,1.7l-7.3,2.9c-0.4,0.2-0.6,0.6-0.5,1.1l2.3,7.8c0.1,0.4,0.5,0.7,1,0.6l8.1-1.7  c0.7-0.1,1.4,0.2,1.8,0.8c0,0.1,0.1,0.1,0.1,0.2c0.1,0.1,0.1,0.3,0.2,0.4c0.1,0.1,0.1,0.2,0.2,0.3c0.1,0.1,0.1,0.2,0.2,0.3  c0,0,0,0,0,0.1c0,0,0,0,0,0.1c0.1,0.1,0.1,0.2,0.2,0.3c0,0.1,0.1,0.2,0.1,0.2c0,0,0,0.1,0.1,0.1c0,0.1,0.1,0.1,0.1,0.2  c0,0.1,0.1,0.1,0.1,0.2c0,0,0.1,0.1,0.1,0.1c0,0.1,0.1,0.1,0.1,0.2c0.1,0.1,0.1,0.2,0.2,0.3c0,0,0,0,0,0.1c0,0,0,0,0,0c0,0,0,0,0,0  c0.1,0.1,0.1,0.2,0.2,0.3c0.1,0.1,0.1,0.2,0.2,0.3c0,0,0,0,0,0c0.4,0.6,0.3,1.4-0.1,2l-5.2,6.5c-0.3,0.4-0.2,0.9,0.1,1.2l5.9,5.6  c0.3,0.3,0.8,0.3,1.2,0l6.2-5.5c0.6-0.5,1.4-0.6,2-0.2c0.1,0,0.1,0.1,0.2,0.1c0.1,0.1,0.3,0.2,0.4,0.2c0.1,0.1,0.2,0.1,0.3,0.2  c0.1,0.1,0.2,0.1,0.3,0.2c0,0,0,0,0.1,0c0,0,0.1,0,0.1,0c0.1,0,0.2,0.1,0.3,0.1c0.1,0,0.2,0.1,0.2,0.1c0,0,0.1,0,0.1,0.1  c0.1,0,0.1,0.1,0.2,0.1c0.1,0,0.1,0.1,0.2,0.1c0.1,0,0.1,0.1,0.2,0.1c0.1,0,0.1,0.1,0.2,0.1c0.1,0,0.2,0.1,0.3,0.1c0,0,0.1,0,0.1,0  c0,0,0,0,0.1,0c0,0,0,0,0,0c0.1,0,0.2,0.1,0.3,0.1c0.1,0.1,0.2,0.1,0.3,0.2c0,0,0,0,0,0c0.7,0.3,1,1.1,0.9,1.8l-1.2,8.2  c-0.1,0.5,0.2,0.9,0.7,1l7.9,1.9c0.4,0.1,0.9-0.1,1-0.6l2.6-7.7c0.2-0.7,0.9-1.2,1.6-1.2c0.1,0,4.3,0,4.3,0c0.7,0,1.4,0.3,1.7,1  l3.1,7.8c0.2,0.4,0.7,0.7,1.1,0.6l7.8-2.3c0.4-0.1,0.7-0.7,0.6-1.1l-1.7-8.2c-0.1-0.7,0.2-1.5,0.8-1.9c0.1,0,0.1-0.1,0.2-0.1  c0.1-0.1,0.3-0.1,0.4-0.2c0.1-0.1,0.2-0.1,0.3-0.2c0.1-0.1,0.2-0.1,0.3-0.2c0,0,0,0,0.1,0c0,0,0,0,0.1,0c0.1-0.1,0.2-0.1,0.3-0.2  c0.1,0,0.2-0.1,0.2-0.1c0,0,0.1,0,0.1-0.1c0.1,0,0.1-0.1,0.2-0.1c0.1,0,0.1-0.1,0.2-0.1c0,0,0.1-0.1,0.1-0.1c0.1,0,0.1-0.1,0.2-0.1  c0.1-0.1,0.2-0.1,0.3-0.2c0,0,0,0,0.1,0c0,0,0,0,0.1,0c0,0,0,0,0,0c0.1-0.1,0.2-0.1,0.3-0.2c0.1-0.1,0.2-0.1,0.3-0.2c0,0,0,0,0,0  c0.6-0.4,1.4-0.3,2,0.1l6.5,5.2c0.4,0.3,0.9,0.2,1.2-0.1l5.6-5.9c0.3-0.3,0.3-0.8,0-1.2l-5.5-6.2c-0.5-0.6-0.6-1.4-0.2-2  c0-0.1,0.1-0.1,0.1-0.2c0.1-0.1,0.2-0.3,0.2-0.4c0.1-0.1,0.1-0.2,0.2-0.3c0.1-0.1,0.1-0.2,0.2-0.3c0,0,0,0,0-0.1c0,0,0,0,0-0.1  c0-0.1,0.1-0.2,0.1-0.3c0-0.1,0.1-0.2,0.1-0.2c0,0,0-0.1,0.1-0.1c0-0.1,0.1-0.1,0.1-0.2c0-0.1,0.1-0.1,0.1-0.2  c0-0.1,0.1-0.1,0.1-0.2c0-0.1,0.1-0.1,0.1-0.2c0-0.1,0.1-0.2,0.1-0.3c0,0,0-0.1,0-0.1c0,0,0,0,0-0.1c0,0,0,0,0,0  c0-0.1,0.1-0.2,0.1-0.3c0.1-0.1,0.1-0.2,0.2-0.3c0,0,0,0,0,0c0.3-0.7,1.1-1,1.8-0.9l8.2,1.2c0.5,0.1,0.9-0.2,1-0.7l1.9-7.9  C225,56,224.8,55.6,224.3,55.5z M180.3,68.9c-10.4,0-18.9-8.4-18.9-18.9s8.4-18.9,18.9-18.9s18.9,8.4,18.9,18.9  S190.7,68.9,180.3,68.9z"/><path d="M225.1-46.5l-28-28c3.2-5.1,5-11.1,5-17.5c0-18.3-14.8-33.1-33.1-33.1S136-110.2,136-91.9s14.8,33.1,33.1,33.1  c6.4,0,12.4-1.8,17.5-5l28,28c1.2,1.2,3.1,1.2,4.3,0l6.3-6.3C226.3-43.4,226.3-45.3,225.1-46.5z M169.1-69.4  c-12.4,0-22.5-10.1-22.5-22.5s10.1-22.5,22.5-22.5c12.4,0,22.5,10.1,22.5,22.5S181.5-69.4,169.1-69.4z"/><path d="M347.9-110.5l-6.4-6.4c-1.2-1.2-3-1.2-4.2,0L311-90.6l-26.2-26.2c-1.2-1.2-3-1.2-4.2,0l-6.4,6.4c-1.2,1.2-1.2,3,0,4.2  L300.4-80l-26.2,26.2c-1.2,1.2-1.2,3,0,4.2l6.4,6.4c1.2,1.2,3,1.2,4.2,0L311-69.4l26.2,26.2c1.2,1.2,3,1.2,4.2,0l6.4-6.4  c1.2-1.2,1.2-3,0-4.2L321.6-80l26.2-26.2C349-107.4,349-109.3,347.9-110.5z"/><path d="M310.5,57.5l-42.9-25.3c-0.7-0.4-1.6,0-1.6,0.9v46.8c0,1.8,1.5,3.3,3.3,3.3H353c1.7,0,3-1.3,3-3V33.1c0-0.8-0.9-1.3-1.6-0.9  l-42.9,25.3C311.2,57.7,310.8,57.7,310.5,57.5z"/><path d="M354.1,22.2l-86.2,0c-1,0-1.4,1.3-0.5,1.8l43.1,25.5c0.3,0.2,0.7,0.2,1,0l43.1-25.5C355.5,23.5,355.1,22.2,354.1,22.2z"/><path d="M624.6-80.8l-32.7-32.6c-0.4-0.4-1.1-0.4-1.5,0l-9.2,9.4c-0.4,0.4-0.4,1.1,0,1.5L596.4-87h-60.2c-0.6,0-1.1,0.5-1.1,1.1  v12.9c0,0.6,0.5,1.1,1.1,1.1h60.2l-15.2,15c-0.4,0.4-0.4,1.1,0,1.5l9.2,9c0.4,0.4,1.1,0.4,1.5,0l28.2-28.1v0l4.4-4.6  C625-79.7,625-80.3,624.6-80.8z"/><path d="M395.5-80.8l32.7-32.6c0.4-0.4,1.1-0.4,1.5,0l9.2,9.4c0.4,0.4,0.4,1.1,0,1.5L423.6-87h60.2c0.6,0,1.1,0.5,1.1,1.1v12.9  c0,0.6-0.5,1.1-1.1,1.1h-60.2l15.2,15c0.4,0.4,0.4,1.1,0,1.5l-9.2,9c-0.4,0.4-1.1,0.4-1.5,0l-28.2-28.1v0l-4.4-4.6  C395.1-79.7,395.1-80.3,395.5-80.8z"/><path d="M605.5,21.9l-34.9,35c-0.4,0.4-1.1,0.4-1.5,0l-14.6-14.6c-0.4-0.4-1.1-0.4-1.5,0l-9.1,9.1c-0.4,0.4-0.4,1.1,0,1.5l15.4,15.4  l0,0l9.9,9.9c0.4,0.4,1.1,0.4,1.5,0l45.5-45.6c0.4-0.4,0.4-1.1,0-1.5l-9.1-9.1C606.6,21.5,605.9,21.5,605.5,21.9z"/><path d="M479.8,46.4c3.7-4.5,5.8-10.4,5.1-16.8c-1.1-10.4-9.5-18.8-19.9-19.9c-8.2-0.9-15.5,2.6-20.1,8.5l-5,5l-5.1-5.2  c-4.4-5.7-11.7-9.2-19.8-8.3c-9.9,1-18,8.7-19.6,18.5c-1.2,7,1,13.5,5.1,18.3L439,90.1c0.6,0.6,1.5,0.6,2.1,0L479.8,46.4z"/></svg>