<svg xmlns="http://www.w3.org/2000/svg" xmlns:xlink="http://www.w3.org/1999/xlink" version="1.1" x="0px" y="0px" viewBox="0 0 100 125" enable-background="new 0 0 100 100" xml:space="preserve"><path  fill="#8c0a0a"  d="M50,95L23.64,68.64c-14.535-14.535-14.534-38.186,0-52.721C30.681,8.877,40.043,5,50,5c2.842,0,5.69,0.326,8.467,0.972  c6.447,1.497,12.397,4.705,17.206,9.276c0.231,0.22,0.461,0.444,0.688,0.671c14.535,14.535,14.535,38.186,0,52.721L50,95z   M50,13.771c-7.614,0-14.773,2.966-20.157,8.351c-11.116,11.115-11.116,29.201,0,40.316L50,82.595l20.158-20.158  c11.115-11.114,11.115-29.2,0-40.315c-0.175-0.175-0.351-0.347-0.528-0.516c-3.677-3.494-8.223-5.945-13.148-7.09  C54.355,14.021,52.175,13.771,50,13.771z"/></svg>