<svg xmlns="http://www.w3.org/2000/svg" data-name="Слой 3" viewBox="0 0 71.53848 158.0269375" x="0px" y="0px"><title>70</title><path d="M150.125,86.78923A35.75241,35.75241,0,0,0,142.96143,157.57245L146.8843,210.20289A3.24986,3.24986,0,0,0,153.36571,210.20289L157.28865000000002,157.57245A35.75241,35.75241,0,0,0,150.125,86.78923Z" fill="red" transform="translate(-114.35576 -86.78923)"/> <path d="M165.74352,122.55843A15.6398,15.6398,0,0,0,150.125,106.91554A3.24067,3.24067,0,1,1,150.125,100.43421A22.13914,22.13914,0,0,1,172.24938,122.55842999999999A3.253,3.253,0,0,1,165.74352,122.55842999999999Z" transform="translate(-114.35576 -86.78923)"/></svg>