<svg xmlns="http://www.w3.org/2000/svg" xmlns:xlink="http://www.w3.org/1999/xlink" version="1.1" x="0px" y="0px" viewBox="0 0 91 113.75" enable-background="new 0 0 91 91" xml:space="preserve"><g><g><g><path d="M57.316,62.464C72.551,57.117999999999995,81.549,41.056,78.043,25.518C74.157,8.311,58.061,-2.381,40.694,0.713C23.399,3.798,11.537,21.192,15.189,38.364C17.785,50.571,25.178,58.67399999999999,36.955,62.768C37.61,62.998,38,63.337,38.275999999999996,63.95C39.052,65.667,39.867,67.364,40.672,69.066C41.884,71.623,43.098,74.184,44.315999999999995,76.753C32.922,77.124,24.035999999999994,80.162,24.035999999999994,83.858C24.035999999999994,87.802,34.166,91.001,46.66199999999999,91.001C59.15899999999999,91.001,69.28899999999999,87.80300000000001,69.28899999999999,83.858C69.28899999999999,80.284,60.95599999999999,77.328,50.09299999999999,76.804C52.04999999999999,72.453,54.01099999999999,68.104,55.95499999999999,63.746C56.243,63.102,56.61,62.713,57.316,62.464Z"/><path fill="#343332" d="M60.954,81.11C60.954,83.248,54.555,84.978,46.662,84.978C38.766999999999996,84.978,32.369,83.24799999999999,32.369,81.11C32.369,79.168,37.671,77.56099999999999,44.572,77.288C45.447,79.13499999999999,46.323,80.982,47.21,82.851C47.623,82.551,47.676,82.189,47.813,81.883C48.496,80.369,49.172000000000004,78.854,49.852000000000004,77.341C56.208,77.733,60.954,79.271,60.954,81.11Z"/><path fill="#8c0a0a" d="M46.385,55.055C34.023,55.079,23.651,44.92,23.631,32.774C23.611,19.901000000000003,33.584,9.633000000000003,46.123000000000005,9.622C58.756,9.61,69.09100000000001,19.667,69.101,31.987C69.112,44.831,59.067,55.029,46.385,55.055Z"/><path d="M46.873,21.852c-5.678,0.024-10.251,4.614-10.24,10.277c0.01,5.644,4.642,10.273,10.275,10.273     c5.697,0.002,10.291-4.63,10.275-10.359C57.167,26.381,52.563,21.829,46.873,21.852z"/></g></g></g></svg>