<svg xmlns="http://www.w3.org/2000/svg" xmlns:xlink="http://www.w3.org/1999/xlink" version="1.1" x="0px" y="0px" viewBox="0 0 75 75" style="enable-background:new 0 0 75 75;" xml:space="preserve"><path d="M-419.25,31.421l27.297-27.297c0.781-0.781,2.047-0.781,2.828,0c0.781,0.781,0.781,2.047,0,2.828  l-27.297,27.297c-0.781,0.781-2.047,0.781-2.828,0C-420.031,33.468-420.031,32.202-419.25,31.421z M-422.505,23.501  c-1.096-0.135-2.093,0.645-2.228,1.742l-1.711,13.972c-0.078,0.634,0.151,1.235,0.569,1.655c0,0,0.001,0.001,0.001,0.002  c0,0,0.001,0.001,0.001,0.001c0,0,0.001,0.001,0.001,0.001c0,0,0.001,0.001,0.002,0.001c0.42,0.418,1.021,0.646,1.655,0.569  l13.972-1.711c1.096-0.134,1.876-1.132,1.742-2.228c-0.134-1.096-1.131-1.876-2.228-1.742l-11.433,1.4l1.4-11.433  C-420.629,24.632-421.408,23.635-422.505,23.501z M-390.532,19.497c-1.104,0-2,0.896-2,2V67.5h-59.961V7.538h45.997  c1.104,0,2-0.896,2-2s-0.896-2-2-2h-47.997c-1.104,0-2,0.896-2,2V69.5c0,1.104,0.896,2,2,2h63.961c1.104,0,2-0.896,2-2V21.497  C-388.532,20.393-389.428,19.497-390.532,19.497z"/><path d="M47.663-69.369V-45.5c0,1.104-0.896,2-2,2H5.534c-1.104,0-2-0.896-2-2v-64c0-1.104,0.896-2,2-2h40.13  c1.104,0,2,0.896,2,2v23.33c0,1.104-0.896,2-2,2s-2-0.896-2-2v-21.33H7.534v60h36.13v-21.869c0-1.104,0.896-2,2-2  S47.663-70.474,47.663-69.369z M19.496-77.5c0,1.104,0.896,2,2,2h38.604c1.104,0,2-0.896,2-2s-0.896-2-2-2H21.496  C20.391-79.5,19.496-78.604,19.496-77.5z M71.466-77.501c0-0.001-0.001-0.001-0.001-0.002c-0.001-0.593-0.265-1.179-0.768-1.572  l-11.09-8.67c-0.87-0.68-2.127-0.526-2.807,0.344c-0.681,0.87-0.526,2.126,0.344,2.808l9.074,7.094l-9.074,7.094  c-0.871,0.681-1.025,1.938-0.344,2.808c0.68,0.87,1.937,1.024,2.807,0.344l11.09-8.67c0.503-0.393,0.767-0.98,0.768-1.572  c0-0.001,0.001-0.001,0.001-0.002c0,0,0-0.001,0-0.001S71.466-77.501,71.466-77.501z"/><path d="M-388.539-422.519c0,11.028-8.972,20-20,20c-1.104,0-2-0.896-2-2s0.896-2,2-2c8.822,0,16-7.178,16-16  s-7.178-16-16-16c-1.104,0-2-0.896-2-2s0.896-2,2-2C-397.511-442.519-388.539-433.547-388.539-422.519z M-408.539-412.683  c-1.104,0-2,0.896-2,2s0.896,2,2,2c7.629,0,13.836-6.207,13.836-13.836c0-7.63-6.207-13.837-13.836-13.837c-1.104,0-2,0.896-2,2  s0.896,2,2,2c5.424,0,9.836,4.413,9.836,9.837C-398.702-417.095-403.115-412.683-408.539-412.683z M-412.473-442.635v40.272  c0,1.638-0.813,3.159-2.173,4.07c-0.819,0.548-1.767,0.829-2.723,0.829c-0.631,0-1.265-0.123-1.868-0.371l-11.649-4.799  l-19.43-0.027c-3.368-0.003-6.113-2.748-6.117-6.117l-0.028-23.761c-0.002-1.638,0.634-3.177,1.792-4.336  c1.157-1.158,2.695-1.796,4.333-1.796h0.001l19.196,0.005l10.885-7.929h0c1.498-1.091,3.453-1.247,5.104-0.406  C-413.498-446.16-412.473-444.487-412.473-442.635z M-432.489-434.666l-17.848-0.005h0c-0.568,0-1.102,0.221-1.503,0.623  s-0.622,0.936-0.621,1.504l0.028,23.761c0.001,1.168,0.954,2.12,2.122,2.122l17.822,0.025V-434.666z M-416.473-442.635  c0-0.479-0.307-0.707-0.491-0.8c-0.184-0.094-0.55-0.208-0.936,0.074l-10.589,7.714v29.675l10.776,4.439  c0.386,0.16,0.692,0.016,0.841-0.084s0.398-0.329,0.398-0.746V-442.635z"/><path d="M-285.035-443.099l-11.166-12.666c-0.38-0.431-0.926-0.677-1.5-0.677h-26.56  c-3.42,0-6.203,2.783-6.203,6.204v55.516c0,3.421,2.783,6.204,6.203,6.204h33.522c3.42,0,6.203-2.783,6.203-6.204v-47.054  C-284.536-442.263-284.713-442.733-285.035-443.099z M-295.702-449.149l4.737,5.373h-4.618c-0.065,0-0.119-0.053-0.119-0.119  V-449.149z M-288.536-394.723c0,1.215-0.988,2.204-2.203,2.204h-33.522c-1.215,0-2.203-0.989-2.203-2.204v-55.516  c0-1.215,0.988-2.204,2.203-2.204h24.56v8.547c0,2.271,1.848,4.119,4.119,4.119h7.047V-394.723z M-296.082-432.649  c1.104,0,2,0.896,2,2s-0.896,2-2,2h-21.777c-1.104,0-2-0.896-2-2s0.896-2,2-2H-296.082z M-294.082-422.5c0,1.104-0.896,2-2,2  h-21.777c-1.104,0-2-0.896-2-2s0.896-2,2-2h21.777C-294.977-424.5-294.082-423.604-294.082-422.5z M-294.082-414.351  c0,1.104-0.896,2-2,2h-21.777c-1.104,0-2-0.896-2-2s0.896-2,2-2h21.777C-294.977-416.351-294.082-415.456-294.082-414.351z"/><path d="M-195.349-456.461h-24.667c-3.572,0-6.478,2.906-6.478,6.478v24.667c0,1.104,0.896,2,2,2h29.145  c1.104,0,2-0.896,2-2v-29.144C-193.349-455.566-194.245-456.461-195.349-456.461z M-197.349-427.317h-25.145v-22.667  c0-1.366,1.111-2.478,2.478-2.478h22.667V-427.317z M-165.016-456.461h-24.667c-1.104,0-2,0.896-2,2v29.144c0,1.104,0.896,2,2,2  h29.145c1.104,0,2-0.896,2-2v-24.667C-158.538-453.556-161.444-456.461-165.016-456.461z M-162.538-427.317h-25.145v-25.144h22.667  c1.366,0,2.478,1.111,2.478,2.478V-427.317z M-195.349-421.683h-29.145c-1.104,0-2,0.896-2,2v24.667  c0,3.572,2.906,6.478,6.478,6.478h24.667c1.104,0,2-0.896,2-2v-29.144C-193.349-420.787-194.245-421.683-195.349-421.683z   M-197.349-392.539h-22.667c-1.366,0-2.478-1.111-2.478-2.478v-22.667h25.145V-392.539z M-160.538-421.683h-29.145  c-1.104,0-2,0.896-2,2v29.144c0,1.104,0.896,2,2,2h24.667c3.571,0,6.478-2.906,6.478-6.478v-24.667  C-158.538-420.787-159.434-421.683-160.538-421.683z M-162.538-395.016c0,1.366-1.111,2.478-2.478,2.478h-22.667v-25.144h25.145  V-395.016z"/><path d="M-43.52-427.108c0,3.367-2.371,8.441-2.642,9.009c-0.332,0.696-1.034,1.14-1.806,1.14H-69.38  c-1.104,0-2-0.896-2-2s0.896-2,2-2h20.116c0.814-1.931,1.744-4.625,1.744-6.149c0-6.979-5.616-12.67-12.566-12.792  c-0.663,0.099-1.356-0.115-1.811-0.642c-3.924-4.563-9.623-7.18-15.636-7.18c-6.03,0-11.731,2.598-15.641,7.126  c-0.38,0.44-0.933,0.693-1.514,0.693c-7.055,0-12.794,5.739-12.794,12.794c0,2.167,0.541,4.273,1.572,6.15l20.228-0.001  c1.104,0,2,0.896,2,2s-0.896,2-2,2l-21.354,0.001c-0.671,0-1.298-0.337-1.668-0.896c-1.817-2.747-2.777-5.947-2.777-9.254  c0-8.953,7.042-16.292,15.879-16.77c4.642-4.997,11.177-7.844,18.069-7.844c6.851,0,13.359,2.845,18.012,7.838  C-50.627-443.469-43.52-436.103-43.52-427.108z M-65.407-408.619l-10.811,10.81c-0.695,0.695-1.869,0.695-2.564,0l-10.81-10.81  c-0.781-0.781-2.047-0.781-2.828,0c-0.781,0.781-0.781,2.047,0,2.828l10.809,10.809c1.098,1.099,2.558,1.704,4.111,1.704  c1.552,0,3.012-0.604,4.11-1.703l10.811-10.811c0.781-0.781,0.781-2.047,0-2.828C-63.36-409.4-64.626-409.4-65.407-408.619z   M-75.5-404.495v-27.195c0-1.104-0.896-2-2-2s-2,0.896-2,2v27.195c0,1.104,0.896,2,2,2S-75.5-403.39-75.5-404.495z"/><path d="M50.627-430.111h-0.005v-13.351c0-7.168-5.832-13-13-13s-13,5.832-13,13v13.351h-0.249  c-2.695,0-4.889,2.193-4.889,4.89v27.548c0,2.087,1.326,3.946,3.301,4.624l11.643,3.998c0.99,0.34,2.031,0.51,3.072,0.51  s2.082-0.17,3.072-0.51l11.643-3.998c1.975-0.678,3.301-2.537,3.301-4.624v-27.548C55.516-427.917,53.322-430.111,50.627-430.111z   M28.622-443.461c0-4.962,4.037-9,9-9s9,4.038,9,9v13.351h-1.685v-12.874c0-4.034-3.281-7.315-7.315-7.315s-7.315,3.282-7.315,7.315  v12.874h-1.685V-443.461z M34.307-430.111v-12.874c0-1.828,1.487-3.315,3.315-3.315s3.315,1.487,3.315,3.315v12.874H34.307z   M51.516-397.673c0,0.379-0.241,0.717-0.6,0.841l-11.643,3.998c-1.145,0.393-2.402,0.393-3.547,0l-11.643-3.998  c-0.358-0.123-0.6-0.461-0.6-0.841v-27.548c0-0.491,0.398-0.89,0.889-0.89h26.254c0.49,0,0.889,0.399,0.889,0.89V-397.673z   M37.52-422.213c-3.584,0-6.5,2.916-6.5,6.5c0,1.374,0.424,2.683,1.209,3.777l-1.19,8.564c-0.079,0.573,0.093,1.152,0.473,1.589  c0.38,0.436,0.931,0.687,1.509,0.687h8.961c0.578,0,1.129-0.25,1.509-0.687c0.38-0.437,0.552-1.016,0.473-1.589l-1.185-8.522  c0.807-1.104,1.242-2.427,1.242-3.819C44.02-419.297,41.104-422.213,37.52-422.213z M38.691-412.232l0.992,7.137h-4.367l0.996-7.167  c0.087-0.62-0.122-1.244-0.564-1.688c-0.47-0.471-0.729-1.098-0.729-1.763c0-1.378,1.121-2.5,2.5-2.5s2.5,1.122,2.5,2.5  c0,0.672-0.266,1.304-0.749,1.779C38.819-413.491,38.604-412.859,38.691-412.232z"/><path d="M-409.374-315.111h-17.004v-12.145c0-2.146,1.487-3.956,3.458-4.209c2.447-0.309,4.542,1.582,4.542,3.965  v6.461c0,2.757,2.243,5,5,5s5-2.243,5-5v-6.461c0-7.72-6.28-14-14-14s-14,6.28-14,14v12.465c-2.338,0.365-4.138,2.375-4.138,4.814  v27.548c0,2.088,1.327,3.946,3.302,4.624l11.642,3.998c0.991,0.34,2.032,0.51,3.073,0.51s2.082-0.17,3.073-0.51l11.642-3.998  c1.975-0.678,3.302-2.536,3.302-4.624v-27.548C-404.484-312.917-406.677-315.111-409.374-315.111z M-432.378-327.5  c0-5.514,4.486-10,10-10s10,4.486,10,10v6.461c0,0.551-0.449,1-1,1s-1-0.449-1-1v-6.461c0-4.755-4.141-8.551-9.05-7.933  c-3.962,0.509-6.95,4.024-6.95,8.177v12.145h-2V-327.5z M-408.484-282.673c0,0.379-0.241,0.717-0.601,0.841l-11.642,3.998  c-1.144,0.393-2.404,0.393-3.548,0l-11.642-3.998c-0.359-0.124-0.601-0.461-0.601-0.841v-27.548c0-0.491,0.399-0.89,0.89-0.89  h26.253c0.491,0,0.89,0.399,0.89,0.89V-282.673z M-422.481-307.213c-3.584,0-6.5,2.916-6.5,6.5c0,1.373,0.424,2.682,1.209,3.777  l-1.19,8.564c-0.08,0.573,0.093,1.152,0.473,1.589c0.38,0.436,0.93,0.687,1.508,0.687h8.962c0.579,0,1.128-0.25,1.508-0.687  c0.38-0.437,0.552-1.016,0.473-1.589l-1.184-8.523c0.806-1.103,1.241-2.426,1.241-3.819  C-415.981-304.297-418.897-307.213-422.481-307.213z M-421.308-297.232l0.992,7.137h-4.368l0.996-7.167  c0.086-0.62-0.123-1.244-0.564-1.687c-0.47-0.473-0.729-1.099-0.729-1.764c0-1.378,1.122-2.5,2.5-2.5s2.5,1.122,2.5,2.5  c0,0.673-0.266,1.305-0.748,1.779C-421.18-298.49-421.395-297.859-421.308-297.232z"/><path d="M-165.199-332.795h-9.298v-6.667c0-1.104-0.896-2-2-2s-2,0.896-2,2v6.667h-28.006v-6.667  c0-1.104-0.896-2-2-2s-2,0.896-2,2v6.667h-9.297c-1.104,0-2,0.896-2,2v55.256c0,1.104,0.896,2,2,2h54.601c1.104,0,2-0.896,2-2  v-55.256C-163.199-331.899-164.095-332.795-165.199-332.795z M-210.503-328.795v8.583c0,1.104,0.896,2,2,2s2-0.896,2-2v-8.583  h28.006v8.583c0,1.104,0.896,2,2,2s2-0.896,2-2v-8.583h7.298v12.708H-217.8v-12.708H-210.503z M-217.8-277.539v-34.548h50.601  v34.548H-217.8z"/><path d="M-70.149-332c-1.648-0.84-3.606-0.685-5.104,0.406l-10.887,7.929l-19.195-0.005h-0.001c0,0,0,0-0.001,0  c-1.636,0-3.174,0.638-4.331,1.795c-1.157,1.159-1.794,2.698-1.793,4.337l0.029,23.761c0.003,3.369,2.747,6.114,6.117,6.117  l19.429,0.027l11.65,4.799c0.602,0.248,1.236,0.371,1.867,0.371c0.955,0,1.904-0.28,2.724-0.829c1.36-0.911,2.173-2.432,2.173-4.07  v-40.272C-67.473-329.488-68.498-331.16-70.149-332z M-87.489-291.636l-17.821-0.025c-1.169-0.001-2.121-0.953-2.122-2.122  l-0.029-23.761c-0.001-0.568,0.221-1.103,0.622-1.505c0.401-0.401,0.935-0.623,1.502-0.623l17.849,0.005V-291.636z M-71.473-287.363  c0,0.417-0.25,0.646-0.398,0.746c-0.147,0.099-0.454,0.244-0.842,0.084l-10.776-4.439v-29.675l10.591-7.714  c0.388-0.283,0.752-0.168,0.936-0.074c0.183,0.093,0.49,0.321,0.49,0.8V-287.363z M-44.118-300.919c0.781,0.781,0.781,2.047,0,2.828  c-0.391,0.391-0.902,0.586-1.414,0.586s-1.023-0.195-1.414-0.586l-6.581-6.581l-6.581,6.581c-0.391,0.391-0.902,0.586-1.414,0.586  s-1.023-0.195-1.414-0.586c-0.781-0.781-0.781-2.047,0-2.828l6.581-6.581l-6.581-6.581c-0.781-0.781-0.781-2.047,0-2.828  c0.781-0.781,2.047-0.781,2.828,0l6.581,6.581l6.581-6.581c0.781-0.781,2.047-0.781,2.828,0c0.781,0.781,0.781,2.047,0,2.828  l-6.581,6.581L-44.118-300.919z"/><path d="M-172.895-179.659v-18.556c0-1.104-0.896-2-2-2s-2,0.896-2,2v20.461c0,1.104,0.896,2,2,2h0.901  c1.312,0,2.379,1.067,2.379,2.379s-1.067,2.379-2.379,2.379h-40.369c-1.312,0-2.379-1.067-2.379-2.379s1.067-2.379,2.379-2.379  h0.863c0.001,0,0.002,0,0.003,0c1.104-0.002,1.997-0.896,1.997-2c0-0.003,0-0.005,0-0.008c0-0.373,0-27.391,0-27.391  c0-9.541,7.762-17.302,17.302-17.302c4.333,0,8.477,1.608,11.671,4.529c0.815,0.745,2.079,0.689,2.825-0.126  c0.746-0.815,0.689-2.08-0.126-2.826c-3.934-3.597-9.037-5.577-14.371-5.577c-11.746,0-21.302,9.556-21.302,21.302l0,25.5  c-2.977,0.538-5.242,3.147-5.242,6.277c0,3.518,2.861,6.379,6.379,6.379h11.596c0.936,4.808,5.175,8.45,10.253,8.45  c5.078,0,9.317-3.642,10.253-8.45h8.266c3.518,0,6.379-2.861,6.379-6.379C-167.614-176.518-169.899-179.137-172.895-179.659z   M-192.513-162.546c-2.858,0-5.285-1.87-6.129-4.45h12.258C-187.228-164.416-189.654-162.546-192.513-162.546z M-164.259-203.924  c0,1.104-0.896,2-2,2h-17.563c-0.898,0-1.687-0.599-1.927-1.464c-0.241-0.865,0.125-1.785,0.895-2.249l11.402-6.874h-10.37  c-1.104,0-2-0.896-2-2s0.896-2,2-2h17.563c0.898,0,1.687,0.599,1.927,1.464c0.241,0.865-0.125,1.785-0.895,2.249l-11.402,6.874  h10.37C-165.154-205.924-164.259-205.028-164.259-203.924z"/><path d="M-424.5-62.952v-38.604c0-1.104,0.896-2,2-2s2,0.896,2,2v38.604c0,1.104-0.896,2-2,2  S-424.5-61.848-424.5-62.952z M-412.598-66.25c-0.87-0.681-2.126-0.526-2.808,0.344l-7.094,9.074l-7.094-9.074  c-0.681-0.871-1.938-1.025-2.808-0.344c-0.87,0.68-1.024,1.937-0.344,2.807l8.67,11.09c0.393,0.503,0.98,0.767,1.572,0.768  c0.001,0,0.001,0.001,0.002,0.001c0,0,0.001,0,0.001,0s0.001,0,0.001,0c0.001,0,0.001-0.001,0.002-0.001  c0.593-0.001,1.179-0.265,1.572-0.768l8.67-11.09C-411.574-64.313-411.728-65.57-412.598-66.25z M-388.487-77.5  c0,18.755-15.258,34.013-34.013,34.013s-34.013-15.258-34.013-34.013s15.258-34.013,34.013-34.013S-388.487-96.255-388.487-77.5z   M-392.487-77.5c0-16.549-13.464-30.013-30.013-30.013s-30.013,13.464-30.013,30.013s13.464,30.013,30.013,30.013  S-392.487-60.951-392.487-77.5z"/><path d="M63.556-192.5c0,1.104-0.896,2-2,2H22.952c-1.104,0-2-0.896-2-2s0.896-2,2-2h38.604  C62.66-194.5,63.556-193.604,63.556-192.5z M25.906-185.406l-9.074-7.094l9.074-7.094c0.871-0.681,1.025-1.938,0.344-2.808  c-0.68-0.87-1.937-1.024-2.807-0.344l-11.09,8.67c-0.503,0.393-0.767,0.98-0.768,1.572c0,0.001-0.001,0.001-0.001,0.002  c0,0,0,0.001,0,0.001s0,0.001,0,0.001c0,0.001,0.001,0.001,0.001,0.002c0.001,0.593,0.265,1.179,0.768,1.572l11.09,8.67  c0.87,0.68,2.127,0.526,2.807-0.344C26.931-183.468,26.776-184.725,25.906-185.406z M71.513-192.5  c0,18.755-15.258,34.013-34.013,34.013S3.487-173.745,3.487-192.5s15.258-34.013,34.013-34.013S71.513-211.255,71.513-192.5z   M67.513-192.5c0-16.549-13.464-30.013-30.013-30.013S7.487-209.049,7.487-192.5s13.464,30.013,30.013,30.013  S67.513-175.951,67.513-192.5z"/><path d="M-62.952-190.5h-38.604c-1.104,0-2-0.896-2-2s0.896-2,2-2h38.604c1.104,0,2,0.896,2,2  S-61.848-190.5-62.952-190.5z M-51.585-192.501c0-0.001-0.001-0.001-0.001-0.002c-0.001-0.593-0.265-1.179-0.768-1.572l-11.09-8.67  c-0.87-0.68-2.127-0.526-2.807,0.344c-0.681,0.87-0.526,2.126,0.344,2.808l9.074,7.094l-9.074,7.094  c-0.871,0.681-1.025,1.938-0.344,2.808c0.68,0.87,1.937,1.024,2.807,0.344l11.09-8.67c0.503-0.393,0.767-0.98,0.768-1.572  c0-0.001,0.001-0.001,0.001-0.002c0,0,0-0.001,0-0.001S-51.585-192.501-51.585-192.501z M-43.487-192.5  c0,18.755-15.258,34.013-34.013,34.013s-34.013-15.258-34.013-34.013s15.258-34.013,34.013-34.013S-43.487-211.255-43.487-192.5z   M-47.487-192.5c0-16.549-13.464-30.013-30.013-30.013s-30.013,13.464-30.013,30.013s13.464,30.013,30.013,30.013  S-47.487-175.951-47.487-192.5z"/><path d="M-190.5-92.048v38.604c0,1.104-0.896,2-2,2s-2-0.896-2-2v-38.604c0-1.104,0.896-2,2-2  S-190.5-93.152-190.5-92.048z M-190.924-102.646c-0.393-0.503-0.98-0.767-1.572-0.768c-0.001,0-0.001-0.001-0.002-0.001  c0,0-0.001,0-0.001,0s-0.001,0-0.001,0c-0.001,0-0.001,0.001-0.002,0.001c-0.593,0.001-1.179,0.265-1.572,0.768l-8.67,11.09  c-0.68,0.87-0.526,2.127,0.344,2.807c0.87,0.681,2.126,0.526,2.808-0.344l7.094-9.074l7.094,9.074  c0.681,0.871,1.938,1.025,2.808,0.344c0.87-0.68,1.024-1.937,0.344-2.807L-190.924-102.646z M-158.487-77.5  c0,18.755-15.258,34.013-34.013,34.013s-34.013-15.258-34.013-34.013s15.258-34.013,34.013-34.013S-158.487-96.255-158.487-77.5z   M-162.487-77.5c0-16.549-13.464-30.013-30.013-30.013s-30.013,13.464-30.013,30.013s13.464,30.013,30.013,30.013  S-162.487-60.951-162.487-77.5z"/><path d="M-280.381,3.538h-54.238c-3.794,0-6.881,3.087-6.881,6.881v35.467c0,3.794,3.087,6.88,6.881,6.88h26.35  l15.433,13.923c0.375,0.338,0.854,0.515,1.34,0.515c0.274,0,0.551-0.057,0.812-0.173c0.722-0.32,1.188-1.037,1.188-1.827V52.766  h9.116c3.794,0,6.881-3.086,6.881-6.88V10.419C-273.5,6.625-276.587,3.538-280.381,3.538z M-277.5,45.886  c0,1.588-1.292,2.88-2.881,2.88h-11.116c-1.104,0-2,0.896-2,2v9.939L-306.16,49.28c-0.368-0.331-0.845-0.515-1.34-0.515h-27.119  c-1.588,0-2.881-1.292-2.881-2.88V10.419c0-1.589,1.292-2.881,2.881-2.881h54.238c1.588,0,2.881,1.292,2.881,2.881V45.886z   M-289.497,17.25c0,1.104-0.896,2-2,2h-32.007c-1.104,0-2-0.896-2-2s0.896-2,2-2h32.007  C-290.392,15.25-289.497,16.146-289.497,17.25z M-289.497,26.875c0,1.104-0.896,2-2,2h-32.007c-1.104,0-2-0.896-2-2s0.896-2,2-2  h32.007C-290.392,24.875-289.497,25.771-289.497,26.875z"/><path d="M-160.52,28.083h-7.36v-6.586c0-1.104-0.896-2-2-2h-54.601c-1.104,0-2,0.896-2,2v32.006  c0,1.104,0.896,2,2,2h54.601c1.104,0,2-0.896,2-2v-6.67h7.36c1.104,0,2-0.896,2-2v-14.75  C-158.52,28.979-159.415,28.083-160.52,28.083z M-171.88,51.503h-50.601V23.497h50.601V51.503z M-162.52,42.833h-5.36v-10.75h5.36  V42.833z M-219.051,46.637V28.28c0-1.104,0.896-2,2-2s2,0.896,2,2v18.356c0,1.104-0.896,2-2,2S-219.051,47.741-219.051,46.637z   M-212.427,46.637V28.28c0-1.104,0.896-2,2-2s2,0.896,2,2v18.356c0,1.104-0.896,2-2,2S-212.427,47.741-212.427,46.637z   M-205.804,46.637V28.28c0-1.104,0.896-2,2-2s2,0.896,2,2v18.356c0,1.104-0.896,2-2,2S-205.804,47.741-205.804,46.637z   M-199.18,46.637V28.28c0-1.104,0.896-2,2-2s2,0.896,2,2v18.356c0,1.104-0.896,2-2,2S-199.18,47.741-199.18,46.637z   M-192.557,46.637V28.28c0-1.104,0.896-2,2-2s2,0.896,2,2v18.356c0,1.104-0.896,2-2,2S-192.557,47.741-192.557,46.637z"/><path d="M-60.083,52.12c0.781,0.781,0.781,2.047,0.001,2.829c-0.391,0.391-0.903,0.586-1.415,0.586  s-1.023-0.195-1.414-0.585l-14.582-14.57l-14.569,14.569c-0.391,0.391-0.902,0.586-1.414,0.586s-1.023-0.195-1.414-0.586  c-0.781-0.781-0.781-2.047,0-2.828l14.568-14.568l-14.594-14.582c-0.781-0.781-0.781-2.047-0.001-2.829  c0.781-0.781,2.048-0.78,2.829-0.001l14.595,14.583l14.582-14.582c0.781-0.781,2.047-0.781,2.828,0s0.781,2.047,0,2.828  l-14.581,14.581L-60.083,52.12z M-43.451,37.5c0,18.774-15.274,34.049-34.049,34.049s-34.049-15.274-34.049-34.049  S-96.274,3.451-77.5,3.451S-43.451,18.726-43.451,37.5z M-47.451,37.5c0-16.569-13.479-30.049-30.049-30.049  s-30.049,13.479-30.049,30.049S-94.069,67.549-77.5,67.549S-47.451,54.069-47.451,37.5z"/><path d="M-275.519-329.236h-15.205l-6.296-6.116c-0.373-0.363-0.873-0.565-1.394-0.565h-18.211  c-0.521,0-1.021,0.203-1.394,0.565l-6.296,6.116h-15.166c-1.104,0-2,0.896-2,2v38.636c0,1.104,0.896,2,2,2h22.143  c3.794,4.589,9.528,7.518,15.933,7.518s12.139-2.929,15.933-7.518h9.953c1.104,0,2-0.896,2-2v-38.636  C-273.519-328.341-274.415-329.236-275.519-329.236z M-315.813-331.918h16.588l2.761,2.682h-22.11L-315.813-331.918z   M-301.405-283.082c-9.191,0-16.668-7.477-16.668-16.668s7.478-16.668,16.668-16.668s16.668,7.477,16.668,16.668  S-292.214-283.082-301.405-283.082z M-277.519-290.6h-5.382c1.372-2.763,2.164-5.862,2.164-9.15  c0-11.396-9.271-20.668-20.668-20.668s-20.668,9.271-20.668,20.668c0,3.288,0.792,6.387,2.164,9.15h-17.571v-34.636h59.962V-290.6z   M-301.405-311.418c-6.434,0-11.668,5.234-11.668,11.668c0,6.434,5.234,11.668,11.668,11.668c6.434,0,11.668-5.234,11.668-11.668  C-289.737-306.184-294.972-311.418-301.405-311.418z M-301.405-292.082c-4.229,0-7.668-3.44-7.668-7.668  c0-4.228,3.44-7.668,7.668-7.668c4.228,0,7.668,3.44,7.668,7.668C-293.737-295.521-297.177-292.082-301.405-292.082z   M-330.126-323.758c-3.585,0-6.502,2.917-6.502,6.501s2.917,6.501,6.502,6.501s6.501-2.917,6.501-6.501  S-326.542-323.758-330.126-323.758z M-330.126-314.755c-1.379,0-2.502-1.122-2.502-2.501s1.123-2.501,2.502-2.501  s2.501,1.122,2.501,2.501S-328.747-314.755-330.126-314.755z"/><path d="M27.092-294.917c0-1.104,0.896-2,2-2h16.854c1.104,0,2,0.896,2,2s-0.896,2-2,2H29.092  C27.987-292.917,27.092-293.812,27.092-294.917z M29.092-282.867h16.854c1.104,0,2-0.896,2-2s-0.896-2-2-2H29.092  c-1.104,0-2,0.896-2,2S27.987-282.867,29.092-282.867z M50.375-321.497h9.726c1.104,0,2-0.896,2-2s-0.896-2-2-2h-9.726  c-1.104,0-2,0.896-2,2S49.271-321.497,50.375-321.497z M71.5-330.095v38.598c0,1.104-0.896,2-2,2H55.503v13.997c0,1.104-0.896,2-2,2  H21.497c-1.104,0-2-0.896-2-2v-13.997H5.5c-1.104,0-2-0.896-2-2v-38.598c0-1.104,0.896-2,2-2h13.997v-7.367c0-1.104,0.896-2,2-2  h32.006c1.104,0,2,0.896,2,2v7.367H69.5C70.604-332.095,71.5-331.199,71.5-330.095z M23.497-332.095h28.006v-5.367H23.497V-332.095z   M51.503-300.667H23.497v23.167h28.006V-300.667z M67.5-328.095h-60v34.598h11.997v-7.17h-4.624c-1.104,0-2-0.896-2-2s0.896-2,2-2  h45.228c1.104,0,2,0.896,2,2s-0.896,2-2,2h-4.598v7.17H67.5V-328.095z"/><path d="M-422.513-226.494c-18.755,0-34.013,15.258-34.013,34.013c0,18.755,15.258,34.013,34.013,34.013  s34.013-15.258,34.013-34.013C-388.5-211.236-403.758-226.494-422.513-226.494z M-422.513-162.468  c-8.564,0-16.296-3.612-21.77-9.385c1.801-10.527,10.986-18.361,21.771-18.361c10.781,0,19.969,7.834,21.771,18.358  C-406.213-166.081-413.947-162.468-422.513-162.468z M-422.5-194.214c-4.498,0-8.156-3.659-8.156-8.156s3.659-8.156,8.156-8.156  s8.156,3.659,8.156,8.156S-418.002-194.214-422.5-194.214z M-414.75-193.013c2.69-2.232,4.406-5.597,4.406-9.357  c0-6.703-5.453-12.156-12.156-12.156s-12.156,5.453-12.156,12.156c0,3.757,1.714,7.12,4.4,9.351  c-8.134,2.539-14.653,8.952-17.203,17.204c-3.198-4.771-5.067-10.504-5.067-16.666c0-16.549,13.464-30.013,30.013-30.013  s30.013,13.464,30.013,30.013c0,6.161-1.868,11.893-5.065,16.663C-400.113-184.061-406.626-190.47-414.75-193.013z"/><path d="M-283.231-162.538h-3.889c-0.624-12.011-6.829-23.113-16.682-29.962c9.864-6.857,16.071-17.975,16.684-30  h3.888c1.104,0,2-0.896,2-2s-0.896-2-2-2h-48.5c-1.104,0-2,0.896-2,2s0.896,2,2,2h3.85c0.613,12.025,6.82,23.144,16.684,30  c-9.853,6.849-16.058,17.951-16.682,29.962h-3.851c-1.104,0-2,0.896-2,2s0.896,2,2,2h48.5c1.104,0,2-0.896,2-2  S-282.126-162.538-283.231-162.538z M-323.883-222.5h32.766c-0.641,11.28-6.764,21.66-16.383,27.667  C-317.119-200.84-323.242-211.22-323.883-222.5z M-307.5-190.167c9.608,6,15.729,16.363,16.382,27.629h-32.764  C-323.229-173.804-317.108-184.167-307.5-190.167z"/><path d="M-283.231-162.538h-3.889c-0.624-12.011-6.829-23.113-16.682-29.962c9.864-6.857,16.071-17.975,16.684-30  h3.888c1.104,0,2-0.896,2-2s-0.896-2-2-2h-48.5c-1.104,0-2,0.896-2,2s0.896,2,2,2h3.85c0.613,12.025,6.82,23.144,16.684,30  c-9.853,6.849-16.058,17.951-16.682,29.962h-3.851c-1.104,0-2,0.896-2,2s0.896,2,2,2h48.5c1.104,0,2-0.896,2-2  S-282.126-162.538-283.231-162.538z M-323.883-222.5h32.766c-0.641,11.28-6.764,21.66-16.383,27.667  C-317.119-200.84-323.242-211.22-323.883-222.5z M-323.882-162.538c0.653-11.266,6.773-21.629,16.382-27.629  c9.608,6,15.729,16.363,16.382,27.629H-323.882z"/><path d="M-281.013-93.646v32.331c0,5.698-4.636,10.334-10.334,10.334h-10.724l4.678,3.954  c0.844,0.713,0.95,1.975,0.236,2.818c-0.396,0.468-0.96,0.709-1.528,0.709c-0.456,0-0.915-0.155-1.29-0.473  c0,0-8.865-7.508-8.879-7.524c-0.409-0.366-0.672-0.893-0.672-1.485c0-0.603,0.273-1.137,0.695-1.504  c0.005-0.005,8.856-7.491,8.856-7.491c0.843-0.713,2.106-0.606,2.818,0.236c0.713,0.844,0.607,2.105-0.236,2.818l-4.661,3.94h10.708  c3.493,0,6.334-2.842,6.334-6.334v-32.331c0-3.492-2.841-6.334-6.334-6.334h-8.731c-1.104,0-2-0.896-2-2s0.896-2,2-2h8.731  C-285.649-103.98-281.013-99.345-281.013-93.646z M-314.947-54.981h-8.731c-3.492,0-6.333-2.842-6.333-6.334v-32.331  c0-3.492,2.841-6.334,6.333-6.334h10.708l-4.661,3.94c-0.844,0.713-0.949,1.975-0.236,2.818c0.396,0.468,0.96,0.709,1.528,0.709  c0.456,0,0.915-0.155,1.29-0.473c0,0,8.848-7.484,8.852-7.488c0.424-0.367,0.698-0.902,0.698-1.507c0-0.586-0.257-1.108-0.659-1.474  c-0.017-0.019-8.892-7.535-8.892-7.535c-0.843-0.713-2.105-0.607-2.818,0.236s-0.607,2.105,0.236,2.818l4.678,3.954h-10.724  c-5.698,0-10.333,4.636-10.333,10.334v32.331c0,5.698,4.636,10.334,10.333,10.334h8.731c1.104,0,2-0.896,2-2  S-313.843-54.981-314.947-54.981z"/><path d="M-43.535-109.5v64c0,1.104-0.896,2-2,2h-40.13c-1.104,0-2-0.896-2-2v-23.33c0-1.104,0.896-2,2-2  s2,0.896,2,2v21.33h36.13v-60h-36.13v21.869c0,1.104-0.896,2-2,2s-2-0.896-2-2V-109.5c0-1.104,0.896-2,2-2h40.13  C-44.431-111.5-43.535-110.604-43.535-109.5z M-68.865-77.5c0-1.104-0.896-2-2-2h-38.604c-1.104,0-2,0.896-2,2s0.896,2,2,2h38.604  C-69.76-75.5-68.865-76.396-68.865-77.5z M-59.498-77.503c-0.001-0.593-0.265-1.179-0.768-1.572l-11.09-8.67  c-0.87-0.68-2.127-0.526-2.807,0.344c-0.681,0.87-0.526,2.126,0.344,2.808l9.074,7.094l-9.074,7.094  c-0.871,0.681-1.025,1.938-0.344,2.808c0.68,0.87,1.937,1.024,2.807,0.344l11.09-8.67c0.503-0.393,0.767-0.98,0.768-1.572  c0-0.001,0.001-0.001,0.001-0.002c0,0,0-0.001,0-0.001s0-0.001,0-0.001C-59.497-77.502-59.498-77.503-59.498-77.503z"/><path d="M69.48,12.886H5.52c-0.53,0-1.04,0.211-1.415,0.586c-0.375,0.376-0.585,0.885-0.585,1.416l0.038,45.229  c0.001,1.104,0.896,1.998,2,1.998H69.48c1.104,0,2-0.896,2-2V14.886C71.48,13.781,70.585,12.886,69.48,12.886z M37.507,39.52  L10.949,16.886h53.103L37.507,39.52z M7.523,19.221l18.925,16.13L7.553,55.13L7.523,19.221z M29.499,37.95l6.711,5.72  c0.373,0.318,0.835,0.478,1.297,0.478s0.924-0.159,1.298-0.479l6.708-5.72l19.265,20.165H10.235L29.499,37.95z M48.562,35.349  l18.918-16.13v35.933L48.562,35.349z"/></svg>