<svg xmlns="http://www.w3.org/2000/svg" viewBox="0 0 25 25" x="0px" y="0px"><g data-name="Website Domain"><path fill="white" d="M18.421,18.6a8.44,8.44,0,0,1-4.25,2.237A10.538,10.538,0,0,0,16.435,17.7c.348.068.7.134,1.034.221a.5.5,0,0,0,.25-.969c-.292-.075-.594-.129-.893-.19a11.251,11.251,0,0,0,.359-1.138c.005-.021,0-.04,0-.061A.618.618,0,0,0,17.2,15.5c0-.013-.006-.024-.007-.037a.554.554,0,0,0-.02-.1.38.38,0,0,0-.085-.166.517.517,0,0,0-.062-.07.529.529,0,0,0-.078-.052.5.5,0,0,0-.09-.043c-.013,0-.022-.014-.035-.017s-.041,0-.062,0A.6.6,0,0,0,16.7,15H3V10H22v1.019a.5.5,0,0,0,1,0V9.5a.5.5,0,0,0-.5-.5H21.32A9.483,9.483,0,0,0,3.68,9H2.5a.5.5,0,0,0-.5.5v6a.5.5,0,0,0,.5.5H3.68a9.5,9.5,0,0,0,8.82,6h0a9.438,9.438,0,0,0,6.617-2.685.5.5,0,1,0-.7-.717ZM13,8.671a21.538,21.538,0,0,0,2.828-.249c.073.187.142.378.206.578H13Zm0-1.022V4.468a9.533,9.533,0,0,1,2.394,2.988A20.865,20.865,0,0,1,13,7.649ZM12,4.472V7.649a20.83,20.83,0,0,1-2.392-.193A9.615,9.615,0,0,1,12,4.472Zm0,4.2V9H8.966c.064-.2.134-.391.207-.578A21.508,21.508,0,0,0,12,8.671ZM17.075,9c-.077-.264-.159-.518-.249-.762a18.246,18.246,0,0,0,2.545-.717A8.433,8.433,0,0,1,20.214,9Zm1.6-2.3a17.286,17.286,0,0,1-2.247.6,10.554,10.554,0,0,0-2.229-3.1A8.481,8.481,0,0,1,18.678,6.7Zm-7.88-2.5a10.554,10.554,0,0,0-2.229,3.1,17.286,17.286,0,0,1-2.247-.6A8.481,8.481,0,0,1,10.8,4.194ZM5.629,7.521a18.246,18.246,0,0,0,2.545.717c-.09.244-.172.5-.249.762H4.786A8.433,8.433,0,0,1,5.629,7.521ZM12,16.337a22.178,22.178,0,0,0-2.825.248C9.1,16.4,9.031,16.2,8.966,16H12Zm0,1v3.2a9.538,9.538,0,0,1-2.4-3A21,21,0,0,1,12,17.336Zm1,3.192v-3.2a20.8,20.8,0,0,1,2.4.2A9.613,9.613,0,0,1,13,20.528Zm0-4.2V16h3.034c-.064.2-.133.39-.206.576A21.566,21.566,0,0,0,13,16.323ZM7.925,16c.076.26.157.511.245.752a18.006,18.006,0,0,0-2.542.725A8.475,8.475,0,0,1,4.786,16ZM6.317,18.3a17.413,17.413,0,0,1,2.247-.6A10.544,10.544,0,0,0,10.8,20.806,8.477,8.477,0,0,1,6.317,18.3ZM5,11.5v.793l.146-.147a.5.5,0,0,1,.708,0L6,12.293V11.5a.5.5,0,0,1,1,0v2a.5.5,0,0,1-.309.462A.489.489,0,0,1,6.5,14a.5.5,0,0,1-.354-.146L5.5,13.207l-.646.647A.5.5,0,0,1,4,13.5v-2a.5.5,0,0,1,1,0Zm4,0v.793l.146-.147a.5.5,0,0,1,.708,0l.146.147V11.5a.5.5,0,0,1,1,0v2a.5.5,0,0,1-.309.462A.489.489,0,0,1,10.5,14a.5.5,0,0,1-.354-.146L9.5,13.207l-.646.647A.5.5,0,0,1,8,13.5v-2a.5.5,0,0,1,1,0Zm4,0v.793l.146-.147a.5.5,0,0,1,.708,0l.146.147V11.5a.5.5,0,0,1,1,0v2a.5.5,0,0,1-.309.462A.489.489,0,0,1,14.5,14a.5.5,0,0,1-.354-.146l-.646-.647-.646.647A.5.5,0,0,1,12,13.5v-2a.5.5,0,0,1,1,0Zm3.689,1.54a.353.353,0,0,1,.161.11.372.372,0,0,1,.11.16.433.433,0,0,1,.04.19.469.469,0,0,1-.15.35.353.353,0,0,1-.161.11.469.469,0,0,1-.379,0,.523.523,0,0,1-.27-.27.471.471,0,0,1,0-.38.523.523,0,0,1,.27-.27A.5.5,0,0,1,16.689,13.04Zm6.272,1.884-.993-.71.993-.709a.5.5,0,0,0-.133-.881l-5.357-1.786a.5.5,0,0,0-.633.633l1.786,5.357a.5.5,0,0,0,.4.336.63.63,0,0,0,.075,0,.5.5,0,0,0,.407-.209l.708-.993.709.993a.5.5,0,0,0,.366.207.481.481,0,0,0,.395-.144l1.339-1.339a.5.5,0,0,0,.145-.394A.5.5,0,0,0,22.961,14.924Zm-1.567.975-.773-1.083a.5.5,0,0,0-.814,0l-.544.764L18.1,12.1l3.476,1.159-.764.546a.5.5,0,0,0,0,.813l1.082.773Z"/></g></svg>