<svg xmlns="http://www.w3.org/2000/svg" xmlns:xlink="http://www.w3.org/1999/xlink" version="1.1" x="0px" y="0px" viewBox="0 0 100 100" enable-background="new 0 0 100 100" xml:space="preserve"><path fill="white" d="M83.047,17.822H16.628c-3.46,0-6.289,2.832-6.289,6.291v1.572v49.85c0,3.459,2.831,6.291,6.29,6.291h66.417  c3.463,0,6.291-2.832,6.291-6.291V24.113C89.338,20.654,86.51,17.822,83.047,17.822z M38.337,21.088  c1.474,0,2.668,1.191,2.668,2.668c0,1.475-1.194,2.668-2.668,2.668c-1.475,0-2.667-1.193-2.667-2.668  C35.67,22.279,36.864,21.088,38.337,21.088z M29.346,21.088c1.473,0,2.668,1.191,2.668,2.668c0,1.475-1.195,2.668-2.668,2.668  c-1.475,0-2.669-1.193-2.669-2.668C26.677,22.279,27.871,21.088,29.346,21.088z M20.354,21.088c1.474,0,2.667,1.191,2.667,2.668  c0,1.475-1.193,2.668-2.667,2.668s-2.668-1.193-2.668-2.668C17.686,22.279,18.88,21.088,20.354,21.088z M85.338,75.535  c0,1.242-1.049,2.291-2.291,2.291H16.629c-1.241,0-2.29-1.049-2.29-2.291v-45.85h71L85.338,75.535L85.338,75.535z M49.839,72.796  c10.513,0,19.065-8.553,19.065-19.066c0-10.511-8.553-19.063-19.065-19.063c-10.513,0-19.065,8.552-19.065,19.063  C30.774,64.243,39.326,72.796,49.839,72.796z M56.914,68.513c0.83-1.168,1.554-2.542,2.15-4.085h3.188  C60.781,66.132,58.965,67.527,56.914,68.513z M64.125,61.771h-4.212c0.543-2.056,0.88-4.313,0.972-6.71h5.296  C65.983,57.483,65.265,59.758,64.125,61.771z M64.127,45.691c1.138,2.013,1.856,4.289,2.053,6.712h-5.295  c-0.092-2.397-0.429-4.658-0.974-6.712H64.127z M62.254,43.034h-3.188c-0.598-1.542-1.321-2.916-2.151-4.083  C58.965,39.936,60.783,41.327,62.254,43.034z M51.167,37.557c1.961,0.635,3.716,2.635,4.992,5.477h-4.992V37.557z M51.167,45.691  h5.97c0.604,2.024,0.986,4.302,1.092,6.712h-7.062V45.691L51.167,45.691z M51.167,55.062h7.063c-0.105,2.407-0.49,4.686-1.091,6.71  h-5.971v-6.71H51.167z M51.167,64.428h4.99c-1.274,2.841-3.029,4.838-4.99,5.474V64.428z M37.425,64.428h3.188  c0.597,1.542,1.322,2.916,2.151,4.083C40.712,67.527,38.897,66.132,37.425,64.428z M48.511,69.902  c-1.959-0.636-3.716-2.633-4.991-5.475h4.991V69.902z M48.511,61.771H42.54c-0.602-2.024-0.987-4.303-1.092-6.71h7.063V61.771z   M48.511,52.403h-7.063c0.105-2.41,0.489-4.688,1.092-6.712h5.971V52.403z M48.511,37.557v5.477h-4.992  C44.795,40.192,46.549,38.192,48.511,37.557z M42.764,38.95c-0.829,1.168-1.554,2.542-2.152,4.083h-3.188  C38.895,41.327,40.711,39.936,42.764,38.95z M35.551,45.691h4.214c-0.543,2.055-0.881,4.315-0.973,6.712h-5.295  C33.694,49.98,34.413,47.704,35.551,45.691z M33.499,55.062h5.295c0.092,2.397,0.429,4.655,0.973,6.71h-4.213  C34.414,59.758,33.695,57.483,33.499,55.062z"/></svg>